<svg width="266" height="117" viewBox="0 0 266 117" fill="none" xmlns="http://www.w3.org/2000/svg">
<path d="M266 0H0V117H266V0Z" fill="#1112FA"/>
<path d="M52.1589 45.9358H35.9042V27.0764H41.2692V43.2189H52.1589V45.9358Z" fill="white"/>
<path d="M71.7951 45.9358H55.5404V43.2852H60.9054V29.8066H55.5404V27.0764H71.7951V29.6873H66.4301V43.2189H71.7951V45.9358Z" fill="white"/>
<path d="M93.5214 43.2189H90.9387V45.9491H77.3066V43.378H74.5641V40.6478H80.009V43.2189H88.0765V37.9574H77.3066V35.2272H74.5641V29.8066H77.1468V27.0764H88.0765V29.6476H90.8189V32.3777H85.4539V29.8066H80.009V35.0416H90.8189V37.8116H93.5214V43.2189Z" fill="white"/>
<path d="M114.449 43.2189H111.866V45.9491H95.5049V27.0764H111.76V29.6873H114.462V35.1079H111.826V37.7983H114.449V43.2189ZM109.017 35.1079V29.8066H100.95V35.1079H109.017ZM109.017 43.2189V37.8381H100.95V43.2189H109.017Z" fill="white"/>
<path d="M135.39 43.2189H132.807V45.9491H119.175V43.378H116.432V29.8066H119.015V27.0764H132.674V29.6476H135.376V43.2189H135.39ZM129.945 43.2189V29.8066H121.877V43.2189H129.945Z" fill="white"/>
<path d="M156.317 45.9358H150.952V43.3647H148.25V40.6345H145.507V37.8646H142.885V45.9358H137.373V27.0764H142.738V29.6476H145.521V32.338H148.263V35.1079H150.886V27.0764H156.33V45.9358H156.317Z" fill="white"/>
<path d="M56.2326 66.6905H53.65V69.4206H37.2754V50.548H53.5302V53.1589H56.2326V58.5795H53.61V61.2699H56.2326V66.6905ZM50.7878 58.5795V53.2782H42.7203V58.5795H50.7878ZM50.7878 66.6905V61.3096H42.7203V66.6905H50.7878Z" fill="white"/>
<path d="M75.749 69.4074H59.4942V50.548H64.8592V66.6905H75.749V69.4074Z" fill="white"/>
<path d="M100.75 66.6905H98.1674V69.4206H84.5353V66.8495H81.7929V53.2782H84.3755V50.548H98.0343V53.1191H100.737V66.6905H100.75ZM95.3052 66.6905V53.2782H87.2378V66.6905H95.3052Z" fill="white"/>
<path d="M121.691 55.8493H116.326V53.2782H110.961V55.8493H108.179V63.9205H110.841V66.6905H116.246V64.0796H121.691V66.6905H119.108V69.4206H108.192V66.8495H105.489V64.0796H102.747V55.8625H105.33V53.2782H108.072V50.548H118.988V53.1191H121.691V55.8493Z" fill="white"/>
<path d="M142.618 69.4074H134.551V66.717H131.848V63.9073H129.186V69.4074H123.675V50.548H129.039V58.4999H131.702V55.8493H134.404V53.1589H137.187V50.548H142.632V53.1589H140.049V55.8493H137.347V58.4999H134.564V61.2301H137.187V63.9205H139.929V66.6905H142.632V69.4074H142.618Z" fill="white"/>
<path d="M163.546 55.8493H158.181V53.2782H152.816V55.8493H150.034V63.9205H152.696V66.6905H158.101V64.0796H163.546V66.6905H160.963V69.4206H150.047V66.8495H147.344V64.0796H144.602V55.8625H147.185V53.2782H149.927V50.548H160.843V53.1191H163.546V55.8493Z" fill="white"/>
<path d="M184.473 69.4074H179.108V61.2964H171.041V69.4074H165.529V50.548H170.894V58.5795H179.042V50.548H184.487V69.4074H184.473Z" fill="white"/>
<path d="M205.414 69.4074H199.969V64.0266H191.902V69.4074H186.457V55.9686H189.04V53.2782H191.822V50.548H199.969V53.1191H202.712V55.8095H205.414V69.4074ZM199.969 61.3096V55.8095H197.267V53.2782H194.484V55.9686H191.902V61.3096H199.969V61.3096Z" fill="white"/>
<path d="M225.543 69.4074H209.288V66.7567H214.653V53.2782H209.288V50.548H225.543V53.1589H220.178V66.6905H225.543V69.4074Z" fill="white"/>
<path d="M247.269 69.4074H241.904V66.8363H239.202V64.1061H236.459V61.3362H233.837V69.4074H228.325V50.548H233.69V53.1191H236.473V55.8095H239.215V58.5795H241.838V50.548H247.282V69.4074H247.269Z" fill="white"/>
<path d="M56.2326 92.879H50.8543V90.3078H48.1519V87.4981H45.4893V90.1488H42.7869V92.879H37.2754V74.0195H42.6404V82.051H45.3828V79.4401H48.1652V82.051H50.7878V74.0195H56.2326V92.879V92.879Z" fill="white"/>
<path d="M77.4929 92.7332H58.3227V73.6749H77.5062V76.3256H63.8341V81.7462H72.0214V84.5559H63.8341V90.0162H77.4929V92.7332Z" fill="white"/>
<path d="M98.4337 92.7332H79.2502V73.6749H98.4337V76.3256H84.7616V81.7462H92.9489V84.5559H84.7616V90.0162H98.4204V92.7332H98.4337Z" fill="white"/>
<path d="M119.015 92.879H110.948V90.1886H108.245V87.3788H105.583V92.879H100.071V74.0195H105.436V81.9715H108.099V79.3208H110.801V76.6304H113.583V74.0195H119.028V76.6304H116.446V79.3208H113.743V81.9715H110.961V84.7017H113.583V87.3921H116.326V90.162H119.028V92.879H119.015Z" fill="white"/>
<path d="M18.7442 27.0499H17.7457V95.3441H18.7442V27.0499Z" fill="white"/>
</svg>
